<svg width="50" height="50" viewBox="0 0 50 50" fill="none" xmlns="http://www.w3.org/2000/svg">
<path d="M9.93334 20.1325L25 11.4338L40.1295 20.1325L50 14.4338L25 -6.00027e-06L4.982e-07 14.4338L9.93334 20.1325Z" fill="#0190FF"/>
<path d="M0 44.2999L9.93334 50V20.1333L0 14.4346V44.2999Z" fill="#006FC5"/>
<path d="M50 44.2666L40.1334 50V20.1333L50 14.4333V44.2666Z" fill="#004479"/>
<path d="M16.2 23.6L16.2667 33.6666L25 38.8153V28.6666L16.2 23.6Z" fill="#006FC5"/>
<path d="M33.8 23.6L33.7334 33.6666L25 38.8153V28.6666L33.8 23.6Z" fill="#004479"/>
<path d="M25 18.5999L16.2 23.5999L25 28.6666L33.8 23.5999L25 18.5999Z" fill="#0190FF"/>
</svg>
